<!-- icon666.com - MILLIONS vector ICONS FREE --><svg id="Layer_2" enable-background="new 0 0 32 32" viewBox="0 0 32 32" xmlns="http://www.w3.org/2000/svg"><g><path d="m16 9.1 10.9 3.9c.5.2 1 0 1.2-.4s.2-.9-.2-1.3l-11.2-10c-.4-.3-1-.3-1.3 0l-11.2 10c-.2.2-.3.5-.3.7s0 .4.1.5c.2.4.7.6 1.2.4zm0-5.8 6.7 6-6.7-2.4-6.7 2.4z" fill="#000000" style="fill: rgb(255, 255, 255);"></path><path d="m16 18.1 10.9 3.9c.5.2 1 0 1.2-.4s.2-.9-.2-1.3l-11.2-10c-.4-.3-1-.3-1.3 0l-11.2 10c-.2.2-.3.5-.3.7s0 .4.1.5c.2.4.7.6 1.2.4zm0-5.8 6.7 6-6.7-2.4-6.7 2.4z" fill="#000000" style="fill: rgb(255, 255, 255);"></path><path d="m16 27.1 10.9 3.9c.5.2 1 0 1.2-.4s.2-.9-.2-1.3l-11.2-10c-.4-.3-1-.3-1.3 0l-11.2 10c-.2.2-.3.5-.3.7s0 .4.1.5c.2.4.7.6 1.2.4zm0-5.8 6.7 6-6.7-2.4-6.7 2.4z" fill="#000000" style="fill: rgb(255, 255, 255);"></path></g></svg>